<svg xmlns="http://www.w3.org/2000/svg" width="14" height="14" viewBox="0 0 14 14"><defs><style>.a{fill:#00f339;}</style></defs><g transform="translate(-32 -32)"><path class="a" d="M39,46a7,7,0,1,1,7-7A7,7,0,0,1,39,46Zm0-.933A6.067,6.067,0,1,0,32.933,39,6.067,6.067,0,0,0,39,45.067Z"/><path class="a" d="M253.449,318.286a.473.473,0,0,1-.317-.121l-2.445-2.221a.42.42,0,0,1-.015-.616.477.477,0,0,1,.65-.014l2.088,1.9,3.788-4.366a.476.476,0,0,1,.646-.06.42.42,0,0,1,.063.613l-4.1,4.729A.469.469,0,0,1,253.449,318.286Z" transform="translate(-215.357 -276.592)"/></g></svg>