<svg xmlns="http://www.w3.org/2000/svg" width="15.949" height="17.208" viewBox="0 0 15.949 17.208"><defs><style>.a{fill:#e7bb4b;}</style></defs><g transform="translate(0)"><path class="a" d="M128.875,202.667a1.889,1.889,0,0,1,1.889,1.889v10.913a1.889,1.889,0,0,1-1.889,1.889h-9.653a1.889,1.889,0,0,1-1.889-1.889V204.556a1.889,1.889,0,0,1,1.889-1.889Zm0,1.259h-9.653a.63.63,0,0,0-.63.63v10.913a.63.63,0,0,0,.63.63h9.653a.63.63,0,0,0,.63-.63V204.556A.63.63,0,0,0,128.875,203.926Z" transform="translate(-117.333 -200.149)"/><path class="a" d="M277.333,362.667m.63,0h5.876a.556.556,0,0,1,.63.63h0a.556.556,0,0,1-.63.63h-5.876a.556.556,0,0,1-.63-.63h0A.556.556,0,0,1,277.963,362.667Z" transform="translate(-274.185 -357.001)"/><path class="a" d="M277.333,512m.63,0h5.876a.556.556,0,0,1,.63.63h0a.556.556,0,0,1-.63.63h-5.876a.556.556,0,0,1-.63-.63h0A.556.556,0,0,1,277.963,512Z" transform="translate(-274.185 -503.396)"/><path class="a" d="M277.333,661.333m.63,0h3.358a.556.556,0,0,1,.63.63h0a.556.556,0,0,1-.63.63h-3.358a.556.556,0,0,1-.63-.63h0A.556.556,0,0,1,277.963,661.333Z" transform="translate(-274.185 -649.791)"/><path class="a" d="M288.63,75.926H298.7a.63.63,0,0,1,.63.63V87.888a.63.63,0,0,0,1.259,0V76.555a1.889,1.889,0,0,0-1.889-1.889H288.63a.63.63,0,0,0,0,1.259Z" transform="translate(-284.643 -74.667)"/></g></svg>