<svg xmlns="http://www.w3.org/2000/svg" width="18.579" height="18.579" viewBox="0 0 18.579 18.579"><defs><style>.a{fill:#00d87a;}</style></defs><g transform="translate(0)"><path class="a" d="M282.064,282.529h4.18a.464.464,0,0,0,0-.929h-4.18a.464.464,0,0,0,0,.929Zm.929,1.626h-.929a.464.464,0,1,0,0,.929h.929a.464.464,0,1,0,0-.929Z" transform="translate(-276.49 -276.491)"/><path class="a" d="M15.792,7.826V1.858A1.863,1.863,0,0,0,13.934,0H1.858A1.863,1.863,0,0,0,0,1.858V3.716H2.787V15.792a2.8,2.8,0,0,0,2.787,2.787h7.2A5.8,5.8,0,0,0,15.792,7.826ZM.929,1.858A.932.932,0,0,1,1.858.929H12.332a1.8,1.8,0,0,0-.255.929v.929H.929ZM5.574,17.65a1.863,1.863,0,0,1-1.858-1.858V3.716h9.29V1.858a.929.929,0,0,1,1.858,0v5.5A5.8,5.8,0,0,0,9.638,17.65Zm7.2,0a4.877,4.877,0,1,1,0-9.754,4.743,4.743,0,0,1,2.322.6,4.867,4.867,0,0,1-2.322,9.15Z" transform="translate(0)"/><path class="a" d="M543.638,538.993c0-.952-1.556-1.393-3.019-1.393s-3.019.441-3.019,1.393a.972.972,0,0,0,.511.813,1,1,0,0,0-.511.813.921.921,0,0,1,0,1.626c0,.952,1.556,1.393,3.019,1.393s3.019-.441,3.019-1.393a.921.921,0,0,1,0-1.626.951.951,0,0,0-.511-.813A.972.972,0,0,0,543.638,538.993Zm-3.019-.464a3.546,3.546,0,0,1,2.067.464,2.066,2.066,0,0,1-.906.348h-.046a4.98,4.98,0,0,1-1.115.116,7.168,7.168,0,0,1-1.115-.093h-.046a2.067,2.067,0,0,1-.906-.348A3.306,3.306,0,0,1,540.619,538.529Zm0,4.18a3.613,3.613,0,0,1-2.067-.464,2.087,2.087,0,0,1,.836-.348,7.089,7.089,0,0,0,1.208.116,6.662,6.662,0,0,0,1.208-.116,1.66,1.66,0,0,1,.836.348A3.283,3.283,0,0,1,540.619,542.709Zm2.067-2.09a1.946,1.946,0,0,1-.906.348,6.558,6.558,0,0,1-1.161.116,6.3,6.3,0,0,1-1.138-.116,2.264,2.264,0,0,1-.906-.348,2.088,2.088,0,0,1,.836-.348,7.083,7.083,0,0,0,1.208.116,6.865,6.865,0,0,0,1.208-.116A2.272,2.272,0,0,1,542.686,540.619Z" transform="translate(-527.846 -527.846)"/></g></svg>