<svg xmlns="http://www.w3.org/2000/svg" width="24.001" height="24" viewBox="0 0 24.001 24"><defs><style>.a{fill:#e7bb4b;fill-rule:evenodd;}</style></defs><g transform="translate(-32 -32)"><path class="a" d="M44,32A12.155,12.155,0,0,0,32,44.306,12.282,12.282,0,0,0,40.208,55.98c.6.113.82-.268.82-.595,0-.295-.011-1.066-.016-2.095-3.338.745-4.045-1.65-4.045-1.65a3.25,3.25,0,0,0-1.334-1.8c-1.088-.766.08-.75.08-.75a2.521,2.521,0,0,1,1.838,1.27,2.519,2.519,0,0,0,3.493,1.023,2.644,2.644,0,0,1,.761-1.645c-2.663-.311-5.465-1.366-5.465-6.081a4.816,4.816,0,0,1,1.232-3.3A4.53,4.53,0,0,1,37.69,37.1s1.007-.332,3.3,1.259a11.155,11.155,0,0,1,6.011,0C49.294,36.768,50.3,37.1,50.3,37.1a4.53,4.53,0,0,1,.118,3.257,4.836,4.836,0,0,1,1.232,3.3c0,4.725-2.807,5.765-5.481,6.07A2.984,2.984,0,0,1,46.979,52c0,1.645-.016,2.973-.016,3.375,0,.327.214.713.825.589A12.343,12.343,0,0,0,44,32Z"/></g></svg>