<svg xmlns="http://www.w3.org/2000/svg" xmlns:xlink="http://www.w3.org/1999/xlink" width="31" height="31" viewBox="0 0 31 31"><defs><style>.a{fill:url(#a);}.b{fill:none;}.c{fill:url(#b);}.d{fill:#fa0;}</style><radialGradient id="a" cx="0.5" cy="0.5" r="0.5" gradientUnits="objectBoundingBox"><stop offset="0" stop-color="#ffa900" stop-opacity="0.561"/><stop offset="1" stop-color="#ffa900" stop-opacity="0"/></radialGradient><linearGradient id="b" x1="0.685" y1="0.5" x2="1.499" y2="1" gradientUnits="objectBoundingBox"><stop offset="0" stop-color="#fa0"/><stop offset="1" stop-color="#55431d"/></linearGradient></defs><g transform="translate(0 -0.333)"><circle class="a" cx="15.5" cy="15.5" r="15.5" transform="translate(0 0.333)"/><g transform="translate(1.183 1.183)"><g transform="translate(0)"><rect class="b" width="28.391" height="28.391"/><path class="c" d="M11.981,24.213,3.887,19.66h0a2.163,2.163,0,1,1-2.018-3.452V7.145a.3.3,0,0,1,.151-.258L9.8,2.509a.292.292,0,0,1,.144-.038l.038,0a2.164,2.164,0,1,1,4.283,0l.039,0a.293.293,0,0,1,.144.038l7.783,4.378a.3.3,0,0,1,.151.258v9.064a2.164,2.164,0,1,1-2.018,3.452h0L12.27,24.213a.293.293,0,0,1-.29,0Zm.144-.6,7.949-4.471a2.164,2.164,0,0,1,.073-1.751.3.3,0,0,1-.075-.03L16.1,15.1a.3.3,0,0,1-.094.088l-3.736,2.179a.3.3,0,0,1-.3,0L8.241,15.183a.293.293,0,0,1-.095-.087L4.178,17.363a.3.3,0,0,1-.075.03,2.163,2.163,0,0,1,.073,1.751Zm8.39-5.264A1.572,1.572,0,1,0,22.1,16.779h-.032A1.574,1.574,0,0,0,20.515,18.351Zm-19.924,0a1.572,1.572,0,1,0,1.577-1.572H2.148A1.574,1.574,0,0,0,.591,18.351Zm19.775-1.5a.294.294,0,0,1,.091.081,2.162,2.162,0,0,1,1.335-.722V7.318L14.16,3.025A.3.3,0,0,1,14.121,3a2.17,2.17,0,0,1-1.7,1.308V8.22l3.59,2.093a.3.3,0,0,1,.146.256v3.875ZM3.794,16.93a.293.293,0,0,1,.091-.081l4.21-2.405V10.569a.3.3,0,0,1,.147-.256L11.83,8.22V4.307A2.171,2.171,0,0,1,10.13,3a.3.3,0,0,1-.038.026L2.459,7.316v8.892A2.163,2.163,0,0,1,3.794,16.93Zm4.892-2.173,3.439,2.006,3.44-2.006V10.738l-3.44-2.007L8.686,10.738v3.876s0,0,0,0ZM10.553,2.163A1.572,1.572,0,1,0,12.125.591,1.574,1.574,0,0,0,10.553,2.163Z" transform="translate(2.07 2.07)"/><path class="d" d="M11.921,24.343a.591.591,0,0,1-.291-.077L3.749,19.833A2.459,2.459,0,0,1-.5,18.147,2.47,2.47,0,0,1,1.368,15.76V6.94a.591.591,0,0,1,.3-.516L9.452,2.047l.011-.006q0-.041,0-.082a2.459,2.459,0,0,1,4.919,0q0,.041,0,.081l.012.007,7.782,4.378a.592.592,0,0,1,.3.515v8.82a2.46,2.46,0,0,1-.592,4.847,2.438,2.438,0,0,1-1.79-.774l-7.882,4.433A.59.59,0,0,1,11.921,24.343Zm0-.592h0l8.11-4.562ZM4.33,18.8l7.59,4.27,7.592-4.27a2.468,2.468,0,0,1,.052-1.476L15.93,15.249l-3.711,2.165a.594.594,0,0,1-.595,0L7.913,15.249,4.278,17.326A2.467,2.467,0,0,1,4.33,18.8Zm-.5.4,5.26,2.958L3.809,19.187Zm16.649.178a1.851,1.851,0,0,0,1.269.633A1.865,1.865,0,0,1,20.478,19.377Zm-17.146.036a1.864,1.864,0,0,1-1.234.6A1.851,1.851,0,0,0,3.332,19.413Zm18.531-2.542a1.277,1.277,0,1,0,.04,0Zm-19.924,0a1.277,1.277,0,1,0,.039,0H1.939Zm18.3,2.2.144.19a1.867,1.867,0,0,1-.238-.428ZM3.693,18.843a1.867,1.867,0,0,1-.231.412l.141-.185Zm16.333-.5a1.848,1.848,0,0,0,.112.466A1.854,1.854,0,0,1,20.026,18.347Zm-16.21.009a1.855,1.855,0,0,1-.072.345A1.846,1.846,0,0,0,3.816,18.356Zm16.5-1.252-.107.217a1.841,1.841,0,0,0-.191.738,1.874,1.874,0,0,1,1.847-1.779H21.9a1.869,1.869,0,0,1,1.5.787,1.867,1.867,0,0,0-1.266-.77l-.255-.035-.256.035a1.867,1.867,0,0,0-1.152.624ZM1.949,16.279h.016a1.872,1.872,0,0,1,1.859,1.765,1.839,1.839,0,0,0-.19-.724l-.107-.215-.161-.185A1.868,1.868,0,0,0,2.215,16.3l-.255-.035L1.7,16.3a1.867,1.867,0,0,0-1.281.791,1.869,1.869,0,0,1,1.518-.808Zm6.237-1.556h0L11.921,16.9l3.736-2.179.154-.223-.154-.088v.311L11.921,16.9ZM5.554,15.915,3.827,16.9h0Zm13.09.2,1.371.784h0Zm-2.4-2.05,3.971,2.269a2.458,2.458,0,0,1,1.073-.578V7.286L14.04,3.207a2.476,2.476,0,0,1-1.527,1.139v3.5l3.443,2.008a.594.594,0,0,1,.293.511ZM2.551,15.76a2.459,2.459,0,0,1,1.072.577l3.971-2.269v-3.7a.593.593,0,0,1,.294-.511L11.33,7.846v-3.5A2.477,2.477,0,0,1,9.8,3.207L2.551,7.285Zm6.226-1.377,3.144,1.834,3.144-1.834V10.7L11.921,8.87,8.777,10.7Zm-.745.116.154.223v-.311ZM1.959,6.94v0ZM14.1,2.562h0L21.883,6.94h0L14.1,2.562Zm-2.417,1.25.237.033h0l.239-.033A1.9,1.9,0,0,1,11.684,3.812ZM9.742,2.563,7.516,3.815,9.742,2.563ZM11.921.683A1.277,1.277,0,1,0,13.2,1.959,1.278,1.278,0,0,0,11.921.683Zm1.846,1.563a1.854,1.854,0,0,1-.116.418l.084-.2Zm-3.661.214.081.193a1.853,1.853,0,0,1-.112-.408Z" transform="translate(2.275 2.274)"/></g></g></g></svg>