<svg xmlns="http://www.w3.org/2000/svg" xmlns:xlink="http://www.w3.org/1999/xlink" width="30" height="31" viewBox="0 0 30 31"><defs><style>.a{fill:none;}.b{stroke:#a259ff;stroke-miterlimit:10;fill:url(#a);}.c{fill:url(#b);}</style><linearGradient id="a" x1="0.685" y1="0.5" x2="1.499" y2="1" gradientUnits="objectBoundingBox"><stop offset="0" stop-color="#a259ff"/><stop offset="1" stop-color="#1b1e4f"/></linearGradient><radialGradient id="b" cx="0.5" cy="0.5" r="0.5" gradientUnits="objectBoundingBox"><stop offset="0" stop-color="#f82bff" stop-opacity="0.561"/><stop offset="1" stop-color="#f82bff" stop-opacity="0"/></radialGradient></defs><g transform="translate(-0.078 -0.333)"><g transform="translate(1.843 1.843)"><rect class="a" width="26" height="26" transform="translate(0.235 0.491)"/><path class="b" d="M1.4,18.455a1.4,1.4,0,0,1-1.4-1.4V4.754a1.4,1.4,0,0,1,1.4-1.4h.279V2.684A2.611,2.611,0,0,1,4.474,0h8.109c1.558,0,2.962,1.106,3.069,3.356h4.76a1.4,1.4,0,0,1,1.4,1.4v12.3a1.4,1.4,0,0,1-1.4,1.4ZM.559,4.754v12.3A.84.84,0,0,0,1.4,17.9H20.412a.84.84,0,0,0,.839-.839V13.98H11.464a.28.28,0,0,1-.28-.279V7.55a.281.281,0,0,1,.28-.28H21.25V4.754a.839.839,0,0,0-.839-.839H1.4A.84.84,0,0,0,.559,4.754Zm11.184,8.667H21.25V7.829H11.744ZM2.237,2.684v.672H15.092c-.1-1.909-1.236-2.8-2.509-2.8H4.474A2.061,2.061,0,0,0,2.237,2.684Zm13.142,7.942a.839.839,0,1,1,.839.839A.839.839,0,0,1,15.379,10.625Z" transform="translate(3.107 4.029)"/></g><ellipse class="c" cx="15" cy="15.5" rx="15" ry="15.5" transform="translate(0.078 0.333)"/></g></svg>