<svg xmlns="http://www.w3.org/2000/svg" xmlns:xlink="http://www.w3.org/1999/xlink" width="26" height="26.963" viewBox="0 0 26 26.963"><defs><style>.a{fill:none;}.b{stroke:#a259ff;stroke-miterlimit:10;fill:url(#a);}</style><linearGradient id="a" x1="0.685" y1="0.5" x2="1.499" y2="1" gradientUnits="objectBoundingBox"><stop offset="0" stop-color="#a259ff"/><stop offset="1" stop-color="#1b1e4f"/></linearGradient></defs><g transform="translate(0 0.477)"><g transform="translate(0 -0.477)"><rect class="a" width="26" height="26.963"/><path class="b" d="M1.34,17.5A1.335,1.335,0,0,1,0,16.175V4.508A1.335,1.335,0,0,1,1.34,3.182h.268V2.545A2.49,2.49,0,0,1,4.289,0h7.774C13.556,0,14.9,1.049,15,3.182h4.564a1.335,1.335,0,0,1,1.34,1.326V16.175a1.335,1.335,0,0,1-1.34,1.326ZM.536,4.508V16.175a.8.8,0,0,0,.8.8H19.569a.8.8,0,0,0,.8-.8V13.258H10.991a.267.267,0,0,1-.268-.265V7.16a.267.267,0,0,1,.268-.265h9.382V4.508a.8.8,0,0,0-.8-.8H1.34A.8.8,0,0,0,.536,4.508Zm10.722,8.22h9.114v-5.3H11.258ZM2.144,2.545v.637H14.468C14.372,1.372,13.284.53,12.063.53H4.289A1.966,1.966,0,0,0,2.144,2.545Zm12.6,7.531a.8.8,0,1,1,.8.8A.8.8,0,0,1,14.743,10.076Z" transform="translate(2.715 4.448)"/></g></g></svg>