<svg xmlns="http://www.w3.org/2000/svg" xmlns:xlink="http://www.w3.org/1999/xlink" width="26" height="26" viewBox="0 0 26 26"><defs><style>.a{fill:none;}.b{stroke:#90ff59;stroke-miterlimit:10;fill:url(#a);}</style><linearGradient id="a" x1="0.685" y1="0.5" x2="1.499" y2="1" gradientUnits="objectBoundingBox"><stop offset="0" stop-color="#90ff59"/><stop offset="1" stop-color="#2c501a"/></linearGradient></defs><g transform="translate(0 0.16)"><g transform="translate(0 -0.16)"><rect class="a" width="26" height="26"/><path class="b" d="M3.189,18.039a10.5,10.5,0,0,1-.272-14.8.257.257,0,0,1,.362-.008l.009.009,7.391,7.078a.256.256,0,0,1,.007.363L7.225,14.247A5.011,5.011,0,0,0,10.4,15.368a4.868,4.868,0,1,0,0-9.733.256.256,0,1,1,0-.512,5.38,5.38,0,1,1,0,10.758,5.522,5.522,0,0,1-3.532-1.265L3.731,17.847A9.989,9.989,0,1,0,10.5.512.256.256,0,1,1,10.5,0,10.5,10.5,0,1,1,3.189,18.039ZM.512,10.5A9.956,9.956,0,0,0,3.364,17.49l6.774-6.983L3.112,3.78A9.95,9.95,0,0,0,.512,10.5Z" transform="translate(2.476 3.045)"/></g></g></svg>