<svg xmlns="http://www.w3.org/2000/svg" xmlns:xlink="http://www.w3.org/1999/xlink" width="30" height="31" viewBox="0 0 30 31"><defs><style>.a{fill:none;}.b{stroke:#90ff59;stroke-miterlimit:10;fill:url(#a);}.c{fill:url(#b);}</style><linearGradient id="a" x1="0.685" y1="0.5" x2="1.499" y2="1" gradientUnits="objectBoundingBox"><stop offset="0" stop-color="#90ff59"/><stop offset="1" stop-color="#2c501a"/></linearGradient><radialGradient id="b" cx="0.5" cy="0.5" r="0.5" gradientUnits="objectBoundingBox"><stop offset="0" stop-color="#00ff3c" stop-opacity="0.561"/><stop offset="1" stop-color="#81fe55" stop-opacity="0"/></radialGradient></defs><g transform="translate(-0.078 -0.333)"><g transform="translate(0.921 1.843)"><rect class="a" width="27" height="26" transform="translate(0.157 0.491)"/><path class="b" d="M3.481,19.692a11.464,11.464,0,0,1-.3-16.157.28.28,0,0,1,.4-.009l.009.009,8.068,7.727a.28.28,0,0,1,.008.4L7.887,15.552a5.47,5.47,0,0,0,3.465,1.224,5.314,5.314,0,1,0,0-10.625.28.28,0,1,1,0-.559,5.873,5.873,0,1,1,0,11.744A6.028,6.028,0,0,1,7.5,15.955L4.073,19.483A10.9,10.9,0,1,0,11.464.559a.28.28,0,1,1,0-.559A11.464,11.464,0,1,1,3.481,19.692ZM.559,11.464a10.868,10.868,0,0,0,3.113,7.629l7.395-7.622L3.4,4.126A10.862,10.862,0,0,0,.559,11.464Z" transform="translate(2.48 1.792)"/></g><ellipse class="c" cx="15" cy="15.5" rx="15" ry="15.5" transform="translate(0.078 0.333)"/></g></svg>