<svg xmlns="http://www.w3.org/2000/svg" xmlns:xlink="http://www.w3.org/1999/xlink" width="26" height="26.963" viewBox="0 0 26 26.963"><defs><style>.a{fill:none;}.b{stroke:#fa0;stroke-miterlimit:10;fill:url(#a);}</style><linearGradient id="a" x1="0.685" y1="0.5" x2="1.499" y2="1" gradientUnits="objectBoundingBox"><stop offset="0" stop-color="#fa0"/><stop offset="1" stop-color="#55431d"/></linearGradient></defs><rect class="a" width="26" height="26.963"/><path class="b" d="M10.885,21.961,3.531,17.831h0A1.964,1.964,0,1,1,1.7,14.7V6.48a.268.268,0,0,1,.137-.234L8.9,2.276a.266.266,0,0,1,.131-.034l.035,0a1.966,1.966,0,1,1,3.891,0l.035,0a.267.267,0,0,1,.131.034L20.2,6.246a.269.269,0,0,1,.137.234V14.7A1.963,1.963,0,1,1,18.5,17.831h0l-7.354,4.129a.266.266,0,0,1-.263,0Zm.131-.542,7.222-4.055a1.959,1.959,0,0,1,.067-1.588.269.269,0,0,1-.068-.027l-3.605-2.057a.268.268,0,0,1-.085.079l-3.394,1.977a.271.271,0,0,1-.271,0L7.487,13.77a.266.266,0,0,1-.086-.079L3.8,15.748a.271.271,0,0,1-.068.027,1.958,1.958,0,0,1,.067,1.588Zm7.623-4.775a1.428,1.428,0,1,0,1.443-1.426h-.029A1.429,1.429,0,0,0,18.638,16.644Zm-18.1,0A1.428,1.428,0,1,0,1.97,15.218H1.951A1.429,1.429,0,0,0,.537,16.644ZM18.5,15.282a.267.267,0,0,1,.083.073A1.965,1.965,0,0,1,19.8,14.7V6.637L12.864,2.743a.269.269,0,0,1-.035-.024,1.971,1.971,0,0,1-1.545,1.187V7.455l3.261,1.9a.27.27,0,0,1,.133.232V13.1Zm-15.056.073a.266.266,0,0,1,.082-.073L7.354,13.1V9.586a.268.268,0,0,1,.133-.232l3.26-1.9V3.907A1.972,1.972,0,0,1,9.2,2.72a.27.27,0,0,1-.035.023L2.234,6.636V14.7A1.966,1.966,0,0,1,3.447,15.355Zm4.444-1.971,3.125,1.82,3.125-1.82V9.739l-3.125-1.82L7.891,9.739v3.516s0,0,0,0Zm1.7-11.423A1.428,1.428,0,1,0,11.016.536,1.429,1.429,0,0,0,9.588,1.962Z" transform="translate(1.966 2.201)"/></svg>