<svg xmlns="http://www.w3.org/2000/svg" xmlns:xlink="http://www.w3.org/1999/xlink" width="26" height="26" viewBox="0 0 26 26"><defs><style>.a{fill:none;}.b{stroke:#59c3ff;stroke-miterlimit:10;fill:url(#a);}</style><linearGradient id="a" x1="0.685" y1="0.5" x2="1.499" y2="1" gradientUnits="objectBoundingBox"><stop offset="0.008" stop-color="#59c3ff"/><stop offset="1" stop-color="#1c4155"/></linearGradient></defs><g transform="translate(0 0.16)"><g transform="translate(0 -0.16)"><rect class="a" width="26" height="26"/><path class="b" d="M3.792,19.257l0-.053V16.769H.271a.271.271,0,0,1-.265-.216L0,16.5V.271A.271.271,0,0,1,.271,0H21.909a.271.271,0,0,1,.271.271v5.95a.271.271,0,0,1-.541,0V.541H.541V16.228H4.057a.271.271,0,0,1,.265.216l.005.055v2.267l5.018-2.509.121-.029H11.9a.27.27,0,1,1,0,.541H9.529L4.178,19.446a.27.27,0,0,1-.387-.189ZM17.44,17.271c-.021-.013-.079-.05-.176-.117l-.1-.074-.009-.007-.1-.074-.232-.182a9.448,9.448,0,0,1-1.34-1.336,8.275,8.275,0,0,1-1.955-5.365c0-.36.418-.621,1.14-.951l.167-.074c.221-.1.477-.2.761-.309.395-.151.837-.307,1.313-.464l.111-.037.486-.155h.158c.145.044.368.115.6.191l.446.15c.3.1.6.21.867.314.348.132.661.261.928.383l.147.069c.6.283.993.541.993.883a8.275,8.275,0,0,1-1.955,5.365,9.5,9.5,0,0,1-1.34,1.336c-.15.123-.3.236-.445.337l-.057.039-.119.078a.271.271,0,0,1-.281,0Zm-.155-8.509-.65.217c-.3.1-.586.206-.851.308-.342.13-.644.255-.9.37a4.558,4.558,0,0,0-.824.459A7.746,7.746,0,0,0,15.9,15.137,8.9,8.9,0,0,0,17.16,16.4c.133.109.263.208.376.288l.044.031.127-.09c.06-.045.124-.093.188-.144L18,16.4a8.9,8.9,0,0,0,1.263-1.26A7.746,7.746,0,0,0,21.1,10.116a3.869,3.869,0,0,0-.62-.362l-.2-.1c-.154-.071-.325-.144-.509-.218l-.387-.152c-.394-.15-.829-.3-1.29-.456l-.507-.164ZM4.6,8.114a.27.27,0,0,1,0-.541H11.09a.27.27,0,0,1,0,.541Zm0-3.246a.27.27,0,0,1,0-.541H7.844a.27.27,0,1,1,0,.541Z" transform="translate(1.893 3.771)"/></g></g></svg>