<svg xmlns="http://www.w3.org/2000/svg" width="20" height="20.003" viewBox="0 0 20 20.003"><defs><style>.a{fill:#e7bb4b;}</style></defs><path class="a" d="M83.309,82.34a10,10,0,0,0-7.415-16.562.93.93,0,0,0-.274,0,9.995,9.995,0,0,0-9.844,9.861.928.928,0,0,0,0,.229A10,10,0,0,0,82.84,82.843q.206-.206.4-.423a.423.423,0,0,0,.07-.08ZM66.7,76.213h4.2a19.122,19.122,0,0,0,.5,4.08,9.23,9.23,0,0,0-2.712,1.163A9.035,9.035,0,0,1,66.7,76.213Zm1.981-6.107A9.13,9.13,0,0,0,71.4,71.276a19.114,19.114,0,0,0-.5,4.019H66.7A9.035,9.035,0,0,1,68.683,70.106ZM84.838,75.3h-4.2a19.116,19.116,0,0,0-.5-4.018,9.242,9.242,0,0,0,2.723-1.165A9.035,9.035,0,0,1,84.838,75.3Zm-5.116,0H76.216V71.8a17.423,17.423,0,0,0,3.03-.314A18.191,18.191,0,0,1,79.722,75.3Zm-3.506-4.413V66.757a4.188,4.188,0,0,1,2.261,2.464A11.271,11.271,0,0,1,79,70.6,16.581,16.581,0,0,1,76.216,70.883ZM75.3,66.765v4.117a16.371,16.371,0,0,1-2.758-.287,11.272,11.272,0,0,1,.524-1.374A4.229,4.229,0,0,1,75.3,66.765Zm0,5.035v3.5H71.82a18.19,18.19,0,0,1,.476-3.81A17.342,17.342,0,0,0,75.3,71.8Zm-3.48,4.413H75.3v3.554a17.37,17.37,0,0,0-3,.316A18.2,18.2,0,0,1,71.819,76.213Zm3.48,4.472v4.1a4.229,4.229,0,0,1-2.234-2.456,11.244,11.244,0,0,1-.519-1.356A16.533,16.533,0,0,1,75.3,80.685Zm.917,4.105V80.683a16.435,16.435,0,0,1,2.78.284,11.253,11.253,0,0,1-.519,1.359A4.188,4.188,0,0,1,76.216,84.79Zm0-5.024V76.213h3.507a18.2,18.2,0,0,1-.48,3.864A17.409,17.409,0,0,0,76.216,79.766Zm4.424-3.553h4.2a9.035,9.035,0,0,1-1.985,5.234,9.2,9.2,0,0,0-2.717-1.162A19.13,19.13,0,0,0,80.64,76.213Zm1.61-6.794a8.594,8.594,0,0,1-2.349.974,9.15,9.15,0,0,0-1.749-3.382A9.085,9.085,0,0,1,82.249,69.419Zm-8.86-2.408a9.144,9.144,0,0,0-1.747,3.376A8.66,8.66,0,0,1,69.3,69.41,9.085,9.085,0,0,1,73.39,67.011ZM69.311,82.147a8.586,8.586,0,0,1,2.337-.971,9.127,9.127,0,0,0,1.742,3.359A9.085,9.085,0,0,1,69.311,82.147Zm8.841,2.389a9.13,9.13,0,0,0,1.743-3.362,8.736,8.736,0,0,1,2.342.968A9.085,9.085,0,0,1,78.152,84.536Z" transform="translate(-65.768 -65.768)"/></svg>