<svg xmlns="http://www.w3.org/2000/svg" xmlns:xlink="http://www.w3.org/1999/xlink" width="21.835" height="21.835" viewBox="0 0 21.835 21.835"><defs><style>.a{fill:url(#a);}</style><linearGradient id="a" x1="1" y1="1" x2="0" y2="1" gradientUnits="objectBoundingBox"><stop offset="0" stop-color="#ff9e72"/><stop offset="1" stop-color="#2bf1ff"/></linearGradient></defs><path class="a" d="M147.747,136.83a10.917,10.917,0,1,0,10.917,10.917A10.93,10.93,0,0,0,147.747,136.83Zm7.733,5.878h-2.5a12.156,12.156,0,0,0-1.452-3.381,9.289,9.289,0,0,1,3.952,3.381Zm-3.534,5.039a18.2,18.2,0,0,1-.307,3.359h-7.785a18.549,18.549,0,0,1,0-6.719h7.785a18.2,18.2,0,0,1,.307,3.359Zm-4.2,9.238c-1.286,0-2.664-1.6-3.478-4.2h6.955C150.412,155.387,149.034,156.985,147.747,156.985Zm-3.478-14.277c.815-2.6,2.192-4.2,3.478-4.2s2.664,1.6,3.478,4.2Zm-.3-3.381a12.155,12.155,0,0,0-1.452,3.381h-2.5A9.289,9.289,0,0,1,143.967,139.327Zm-4.816,5.061h2.993a20.634,20.634,0,0,0,0,6.719h-2.993A9.118,9.118,0,0,1,139.151,144.388Zm.864,8.4h2.5a12.155,12.155,0,0,0,1.452,3.381A9.289,9.289,0,0,1,140.015,152.786Zm11.513,3.381a12.155,12.155,0,0,0,1.452-3.381h2.5A9.29,9.29,0,0,1,151.528,156.168Zm4.816-5.061h-2.993a20.634,20.634,0,0,0,0-6.719h2.993A9.118,9.118,0,0,1,156.344,151.107Z" transform="translate(-136.83 -136.83)"/></svg>