<svg xmlns="http://www.w3.org/2000/svg" xmlns:xlink="http://www.w3.org/1999/xlink" width="110" height="21.524" viewBox="0 0 110 21.524"><defs><style>.a{fill:none;}.b{fill:url(#a);}.c{clip-path:url(#b);}.d{fill:url(#c);}</style><linearGradient id="a" x1="0.5" x2="0.5" y2="1" gradientUnits="objectBoundingBox"><stop offset="0" stop-color="#31f1fd"/><stop offset="0.579" stop-color="#feffd1"/><stop offset="1" stop-color="#edc761"/></linearGradient><clipPath id="b"><path class="a" d="M123.435,63.42a1.132,1.132,0,0,1-.41-.492,2.212,2.212,0,0,1,0-1.616,1.133,1.133,0,0,1,.41-.492,1.064,1.064,0,0,1,.585-.164,1.036,1.036,0,0,1,.579.164,1.143,1.143,0,0,1,.4.492,2.212,2.212,0,0,1,0,1.616,1.127,1.127,0,0,1-.41.492,1.061,1.061,0,0,1-.584.164,1.043,1.043,0,0,1-.574-.164m-.852-3.812a2.72,2.72,0,0,0-1.01,1.021,2.973,2.973,0,0,0-.371,1.5,2.929,2.929,0,0,0,.371,1.48,2.732,2.732,0,0,0,1,1.021,2.963,2.963,0,0,0,2.873,0,2.732,2.732,0,0,0,1-1.021,3.176,3.176,0,0,0,0-2.982,2.733,2.733,0,0,0-1-1.021,2.952,2.952,0,0,0-2.867,0m7.876-.229a2.216,2.216,0,0,0-.683.393,2.58,2.58,0,0,0-.513.6l-.153-1h-1.452v5.5H129.3V62.415a2,2,0,0,1,.1-.694,1.051,1.051,0,0,1,.295-.442,1.142,1.142,0,0,1,.459-.235,2.318,2.318,0,0,1,.6-.071h.546V59.237a2.407,2.407,0,0,0-.836.142m2.453.092a1.865,1.865,0,0,0-.787.634,1.541,1.541,0,0,0-.273.89,1.23,1.23,0,0,0,.18.683,1.4,1.4,0,0,0,.481.453,3.124,3.124,0,0,0,.688.289q.388.115.781.2.339.065.579.137a.976.976,0,0,1,.366.18.4.4,0,0,1,.126.317.42.42,0,0,1-.088.251.589.589,0,0,1-.257.191,1.162,1.162,0,0,1-.443.071,1.2,1.2,0,0,1-.453-.082.745.745,0,0,1-.317-.23.861.861,0,0,1-.158-.333h-1.627a1.806,1.806,0,0,0,.366.961,2.171,2.171,0,0,0,.885.672A3.324,3.324,0,0,0,134.3,65a3.162,3.162,0,0,0,1.278-.235,1.914,1.914,0,0,0,.825-.65,1.563,1.563,0,0,0,.278-.95,1.288,1.288,0,0,0-.262-.9,1.706,1.706,0,0,0-.759-.475,10.469,10.469,0,0,0-1.152-.306q-.35-.076-.59-.153a1.1,1.1,0,0,1-.366-.18.3.3,0,0,1-.126-.235.363.363,0,0,1,.186-.317,1.014,1.014,0,0,1,.546-.12,1.073,1.073,0,0,1,.524.115.55.55,0,0,1,.273.333h1.529a1.822,1.822,0,0,0-.7-1.234,2.589,2.589,0,0,0-1.627-.459,2.98,2.98,0,0,0-1.245.235m6.254,4.227a.545.545,0,0,1-.251-.186.51.51,0,0,1-.093-.311.537.537,0,0,1,.087-.306.554.554,0,0,1,.267-.2,1.251,1.251,0,0,1,.453-.071h1.059v.011a1.849,1.849,0,0,1-.136.442,1.337,1.337,0,0,1-.235.355,1.021,1.021,0,0,1-.339.24,1.119,1.119,0,0,1-.459.088.993.993,0,0,1-.355-.06m-.628-4.211a2.262,2.262,0,0,0-.89.688,1.951,1.951,0,0,0-.388,1.027h1.573a.679.679,0,0,1,.327-.481,1.26,1.26,0,0,1,.644-.153,1.134,1.134,0,0,1,.568.12.688.688,0,0,1,.3.36,1.716,1.716,0,0,1,.093.612h-1.333a3.385,3.385,0,0,0-1.322.224,1.663,1.663,0,0,0-.77.6,1.552,1.552,0,0,0-.246.868,1.667,1.667,0,0,0,.213.835,1.466,1.466,0,0,0,.666.6,2.629,2.629,0,0,0,1.142.218,2.384,2.384,0,0,0,.578-.065,1.867,1.867,0,0,0,.481-.191,1.713,1.713,0,0,0,.382-.3,1.916,1.916,0,0,0,.284-.377l.2.8h1.365V61.465a2.186,2.186,0,0,0-.322-1.223,2.032,2.032,0,0,0-.9-.748,3.344,3.344,0,0,0-1.365-.257,3.083,3.083,0,0,0-1.278.251m6.516,6.63a.951.951,0,0,1-.42-.229.507.507,0,0,1-.153-.371.7.7,0,0,1,.235-.513,1.216,1.216,0,0,1,.281-.2q.35.057.763.09a1.4,1.4,0,0,1,.764.208.554.554,0,0,1,.186.437.5.5,0,0,1-.136.355.854.854,0,0,1-.371.224,1.785,1.785,0,0,1-.552.076,2.163,2.163,0,0,1-.6-.076m0-4.27a.8.8,0,0,1,0-1.158.957.957,0,0,1,.617-.2.934.934,0,0,1,.612.2.818.818,0,0,1,0,1.158.934.934,0,0,1-.612.2.957.957,0,0,1-.617-.2m-.573-2.332a2.033,2.033,0,0,0-.775.732,1.921,1.921,0,0,0-.273,1.01,1.941,1.941,0,0,0,.273,1.021,1.9,1.9,0,0,0,.347.424l-.97,1.067v.251a1.641,1.641,0,0,0,.371.284c.069.041.145.081.226.119a1.987,1.987,0,0,0-.428.482,1.53,1.53,0,0,0,.1,1.737,1.942,1.942,0,0,0,.912.573,4.557,4.557,0,0,0,1.4.191,3.286,3.286,0,0,0,1.42-.267,1.932,1.932,0,0,0,.83-.7,1.725,1.725,0,0,0,.273-.928,1.545,1.545,0,0,0-.224-.852,1.5,1.5,0,0,0-.688-.552,3.851,3.851,0,0,0-1.174-.267q-.415-.044-.677-.082t-.437-.082a1.456,1.456,0,0,1-.3-.1l-.025-.013.345-.35a2.852,2.852,0,0,0,.664.074,2.484,2.484,0,0,0,1.2-.273,1.913,1.913,0,0,0,.764-.726,2.111,2.111,0,0,0,.073-1.894l.922-.089v-.928h-2.094a2.691,2.691,0,0,0-.866-.131,2.421,2.421,0,0,0-1.191.279m5.936,1.7a1.167,1.167,0,0,1,.453-.492,1.244,1.244,0,0,1,.634-.164,1.111,1.111,0,0,1,.77.279,1.009,1.009,0,0,1,.333.737h-2.314a1.415,1.415,0,0,1,.125-.36M150,59.619a2.676,2.676,0,0,0-1,1.049,3.136,3.136,0,0,0-.36,1.518A2.9,2.9,0,0,0,149,63.655a2.575,2.575,0,0,0,1.01.994,3.049,3.049,0,0,0,1.5.355,2.791,2.791,0,0,0,1.179-.246,2.691,2.691,0,0,0,.907-.666,2.45,2.45,0,0,0,.524-.945h-1.671a1.065,1.065,0,0,1-.366.377,1.1,1.1,0,0,1-.6.148,1.277,1.277,0,0,1-.66-.164,1.08,1.08,0,0,1-.426-.459,1.429,1.429,0,0,1-.141-.524h3.991a2.548,2.548,0,0,0,.027-.279q.005-.137.005-.246a2.808,2.808,0,0,0-.355-1.425,2.625,2.625,0,0,0-.977-.977,3.113,3.113,0,0,0-2.949.022m17.06-.1a1.943,1.943,0,0,0-.71.737l-.131-.885h-1.431v5.5h1.639V61.935a1.525,1.525,0,0,1,.153-.71,1.1,1.1,0,0,1,.42-.453,1.149,1.149,0,0,1,.6-.158.963.963,0,0,1,.814.333,1.5,1.5,0,0,1,.256.934v2.993h1.628V61.727a3.312,3.312,0,0,0-.246-1.349,1.865,1.865,0,0,0-.715-.846,2.136,2.136,0,0,0-1.158-.3,2.109,2.109,0,0,0-1.114.279m23.108,3.9a1.13,1.13,0,0,1-.41-.492,2.215,2.215,0,0,1,0-1.616,1.132,1.132,0,0,1,.41-.492,1.063,1.063,0,0,1,.584-.164,1.038,1.038,0,0,1,.579.164,1.144,1.144,0,0,1,.4.492,2.208,2.208,0,0,1,0,1.616,1.127,1.127,0,0,1-.41.492,1.061,1.061,0,0,1-.584.164,1.042,1.042,0,0,1-.573-.164m-.852-3.812a2.72,2.72,0,0,0-1.01,1.021,2.973,2.973,0,0,0-.371,1.5,2.93,2.93,0,0,0,.371,1.48,2.732,2.732,0,0,0,1,1.021,2.963,2.963,0,0,0,2.872,0,2.733,2.733,0,0,0,1.005-1.021,3.178,3.178,0,0,0,0-2.982,2.734,2.734,0,0,0-1.005-1.021,2.952,2.952,0,0,0-2.867,0m7.668-.229a2.21,2.21,0,0,0-.682.393,2.582,2.582,0,0,0-.513.6l-.153-1h-1.453v5.5h1.638V62.415a2,2,0,0,1,.1-.694,1.053,1.053,0,0,1,.295-.442,1.143,1.143,0,0,1,.459-.235,2.315,2.315,0,0,1,.6-.071h.546V59.237a2.407,2.407,0,0,0-.835.142m-24.954-1.562-.175,1.551h-.939v1.365h.939v2.13a2.389,2.389,0,0,0,.251,1.19,1.437,1.437,0,0,0,.71.628,2.709,2.709,0,0,0,1.049.191H174.9V63.486h-.754a.744.744,0,0,1-.508-.137.61.61,0,0,1-.147-.464V60.733H174.9V59.368h-1.409V57.817Zm-56.113-.59v7.645h1.638V61.684h2.709V60.406h-2.709V58.549h3.44V57.227Zm44.511,1.846.986,2.861H159.44Zm-.928-1.846-2.785,7.645h1.715L159,63.2h2.845l.576,1.671h1.737l-2.785-7.645Zm26.665,0-1.245,5.8-1.431-5.8h-1.813l-1.485,5.81-1.234-5.81h-1.747l1.977,7.645h1.966l1.409-5.341,1.365,5.341h1.966l2.042-7.645Zm12.487,7.645h1.638V57.009H198.65Zm4.594-1.485a1.285,1.285,0,0,1-.486-.519,1.607,1.607,0,0,1-.175-.759,1.553,1.553,0,0,1,.175-.743,1.294,1.294,0,0,1,.486-.513,1.348,1.348,0,0,1,.7-.186,1.369,1.369,0,0,1,.715.186,1.26,1.26,0,0,1,.48.513,1.762,1.762,0,0,1,0,1.507,1.259,1.259,0,0,1-.48.513,1.371,1.371,0,0,1-.715.185,1.35,1.35,0,0,1-.7-.185m2.015-6.378v3.015a1.785,1.785,0,0,0-.7-.585,2.3,2.3,0,0,0-.994-.2,2.5,2.5,0,0,0-1.349.377,2.678,2.678,0,0,0-.956,1.027,3.356,3.356,0,0,0-.005,2.971,2.626,2.626,0,0,0,.939,1.021,2.456,2.456,0,0,0,1.327.371,2.355,2.355,0,0,0,.776-.115,1.849,1.849,0,0,0,.562-.306,2.166,2.166,0,0,0,.4-.42l.186.71H206.9V57.009Z" transform="translate(-115.915 -57.009)"/></clipPath><linearGradient id="c" x1="0" y1="0.5" x2="1" y2="0.5" xlink:href="#a"/></defs><g transform="translate(-35.718 -29.549)"><path class="b" d="M40.861,45.723a8.8,8.8,0,0,0,1.62,3.583V44.364Zm4.348,3.583a8.8,8.8,0,0,0,1.619-3.583l-1.619-1.359Zm-4.434-4.241q.008.13.024.267l1.681-1.411.338-.284v6.037a1.738,1.738,0,0,0,1.026.549,1.737,1.737,0,0,0,1.026-.549V43.638l.339.284,1.681,1.411q.017-.137.024-.267a3.1,3.1,0,1,0-6.139,0m-2.15-1.606a.866.866,0,0,0-.251.622v2.733a.692.692,0,0,1-.175.47,11.292,11.292,0,0,0-2.152,3.789,12.512,12.512,0,0,0,2.627-3.527.855.855,0,0,0,.111-.392q.07-1.475.14-2.95a.7.7,0,0,1,.346-.58,8.9,8.9,0,0,0,2.677-2.693,10.86,10.86,0,0,0-3.324,2.527m9.792.166a.7.7,0,0,1,.346.58q.07,1.475.14,2.95a.858.858,0,0,0,.111.392,12.512,12.512,0,0,0,2.627,3.527,11.288,11.288,0,0,0-2.152-3.789.692.692,0,0,1-.175-.47V44.081a.866.866,0,0,0-.251-.622,10.863,10.863,0,0,0-3.324-2.527,8.9,8.9,0,0,0,2.676,2.693m-8.966-3.9a.873.873,0,0,0-.685.442,10.46,10.46,0,0,0-.738,1.531.7.7,0,0,1-.478.437,3.679,3.679,0,0,0-1.831,1.054A5.666,5.666,0,0,0,38,42.327a.859.859,0,0,0,.3-.3,10.47,10.47,0,0,0,.8-1.6.7.7,0,0,1,.6-.449,13.21,13.21,0,0,0,1.872-.3,6.475,6.475,0,0,0-.778-.043,13.355,13.355,0,0,0-1.334.079m6.676-.036a13.213,13.213,0,0,0,1.872.3.7.7,0,0,1,.6.449,10.47,10.47,0,0,0,.8,1.6.858.858,0,0,0,.3.3,5.667,5.667,0,0,0,2.278.858,3.679,3.679,0,0,0-1.832-1.054.7.7,0,0,1-.478-.437,10.46,10.46,0,0,0-.738-1.531.872.872,0,0,0-.685-.442,13.35,13.35,0,0,0-1.334-.079,6.479,6.479,0,0,0-.778.043m-1.817-.308-.96-1.8a1.937,1.937,0,0,0,.029,3.754V39.515l.96,1.8a1.938,1.938,0,0,0-.029-3.754ZM38.6,34.114a.7.7,0,0,1,.346.58c.025.518.023,1.036,0,1.554a.878.878,0,0,0,.458.817c.793.445,1.575.846,2.349,1.215q-.889-.85-1.961-1.717a.7.7,0,0,1-.267-.536c-.015-.5-.054-1.007-.11-1.511a.866.866,0,0,0-.333-.6,4.325,4.325,0,0,0-2.184-1,13.027,13.027,0,0,0,1.7,1.207m10.01-.2a.867.867,0,0,0-.333.6c-.055.5-.094,1.007-.109,1.511a.7.7,0,0,1-.267.536q-1.074.867-1.961,1.717c.774-.369,1.556-.77,2.349-1.215a.879.879,0,0,0,.458-.817c-.02-.518-.022-1.036,0-1.554a.7.7,0,0,1,.346-.58,13.027,13.027,0,0,0,1.7-1.207,4.325,4.325,0,0,0-2.184,1m-1.871-4.074a1.637,1.637,0,0,0,.156.584v2.141l-1.181.89a2.831,2.831,0,0,0-1.866-1.431,2.83,2.83,0,0,0-1.866,1.431l-1.181-.89V30.421a1.642,1.642,0,0,0,.156-.584.288.288,0,1,0-.576,0,1.643,1.643,0,0,0,.156.584v2.273l.264.2,1.042.785A2.993,2.993,0,0,0,41.4,35.1a1.928,1.928,0,0,0,1.958,2.143.357.357,0,0,0,.316-.356V35.3a.91.91,0,1,1,.338,0v1.58a.357.357,0,0,0,.316.356A1.927,1.927,0,0,0,46.287,35.1a2.99,2.99,0,0,0-.438-1.42l1.042-.785.264-.2V30.421a1.643,1.643,0,0,0,.156-.584.288.288,0,1,0-.576,0" transform="translate(0)"/><g transform="translate(54.736 36.061)"><g class="c" transform="translate(0 0)"><rect class="d" width="93.434" height="16.758" transform="translate(-1.561 -4.322)"/></g></g></g></svg>