<svg xmlns="http://www.w3.org/2000/svg" xmlns:xlink="http://www.w3.org/1999/xlink" width="188.334" height="40.087" viewBox="0 0 188.334 40.087"><defs><style>.a,.b{stroke:rgba(0,0,0,0);stroke-miterlimit:10;}.a{fill:url(#a);}.b{fill:url(#b);}</style><linearGradient id="a" x1="0.86" x2="0.952" y2="1" gradientUnits="objectBoundingBox"><stop offset="0" stop-color="#31f1fd"/><stop offset="0.579" stop-color="#feffd1"/><stop offset="1" stop-color="#edc761"/></linearGradient><linearGradient id="b" x1="0" y1="1" x2="0.952" xlink:href="#a"/></defs><g transform="translate(-132.65 -52.975)"><path class="a" d="M250.966,438.482a15.451,15.451,0,0,0,2.85,6.3v-8.694Zm7.649,6.3a15.493,15.493,0,0,0,2.848-6.3l-2.848-2.391Zm-7.8-7.461q.013.229.042.47l2.957-2.482.595-.5v10.62a2.169,2.169,0,0,0,3.61,0V434.814l.6.5,2.957,2.482q.029-.24.042-.47a5.453,5.453,0,1,0-10.8,0m-3.782-2.825a1.518,1.518,0,0,0-.442,1.094V440.4a1.222,1.222,0,0,1-.308.827A19.826,19.826,0,0,0,242.5,447.9a22.008,22.008,0,0,0,4.621-6.2,1.507,1.507,0,0,0,.2-.69l.246-5.19a1.226,1.226,0,0,1,.609-1.02,15.668,15.668,0,0,0,4.709-4.738,19.133,19.133,0,0,0-5.848,4.446m17.226.292a1.234,1.234,0,0,1,.609,1.02l.246,5.19a1.507,1.507,0,0,0,.2.69,21.974,21.974,0,0,0,4.621,6.2,19.886,19.886,0,0,0-3.786-6.666,1.213,1.213,0,0,1-.308-.827v-4.81a1.533,1.533,0,0,0-.442-1.094,19.154,19.154,0,0,0-5.848-4.446,15.643,15.643,0,0,0,4.708,4.738m-15.773-6.861a1.535,1.535,0,0,0-1.205.778,18.32,18.32,0,0,0-1.3,2.693,1.235,1.235,0,0,1-.841.769,6.466,6.466,0,0,0-3.221,1.854,9.969,9.969,0,0,0,4.018-1.516,1.515,1.515,0,0,0,.528-.528,18.6,18.6,0,0,0,1.407-2.815,1.231,1.231,0,0,1,1.056-.79,23.164,23.164,0,0,0,3.293-.528,11.512,11.512,0,0,0-1.369-.076q-1.177.011-2.347.139m11.744-.063a23.123,23.123,0,0,0,3.293.528,1.233,1.233,0,0,1,1.056.79A18.277,18.277,0,0,0,266,431.98a1.487,1.487,0,0,0,.528.528,9.936,9.936,0,0,0,4.007,1.509,6.486,6.486,0,0,0-3.223-1.854,1.229,1.229,0,0,1-.841-.769,18.491,18.491,0,0,0-1.3-2.693,1.54,1.54,0,0,0-1.205-.778c-.779-.084-1.564-.132-2.347-.139a11.484,11.484,0,0,0-1.369.076m-3.2-.542-1.689-3.167a3.407,3.407,0,0,0,.051,6.6v-3.195l1.689,3.167a3.41,3.41,0,0,0-.051-6.6Zm-10.07-9.259a1.234,1.234,0,0,1,.609,1.02c.044.911.04,1.823,0,2.734a1.54,1.54,0,0,0,.806,1.437c1.4.783,2.771,1.488,4.132,2.137q-1.565-1.5-3.45-3.021a1.226,1.226,0,0,1-.47-.943c-.026-.88-.1-1.771-.194-2.658a1.527,1.527,0,0,0-.586-1.056,7.621,7.621,0,0,0-3.842-1.759,22.827,22.827,0,0,0,2.991,2.123m17.61-.352a1.521,1.521,0,0,0-.586,1.055c-.1.88-.165,1.772-.192,2.658a1.237,1.237,0,0,1-.47.943q-1.889,1.525-3.45,3.021c1.362-.649,2.737-1.355,4.132-2.137a1.546,1.546,0,0,0,.806-1.437c-.035-.911-.039-1.822,0-2.734a1.226,1.226,0,0,1,.609-1.02,22.95,22.95,0,0,0,2.991-2.123,7.613,7.613,0,0,0-3.842,1.759m-3.291-7.167a2.857,2.857,0,0,0,.274,1.027v3.767L259.5,416.9a3.4,3.4,0,0,0-6.565,0l-2.078-1.566v-3.772a2.929,2.929,0,0,0,.274-1.027.507.507,0,0,0-1.013,0h0a2.856,2.856,0,0,0,.274,1.027v4l.464.352,1.833,1.381a5.25,5.25,0,0,0-.774,2.5,3.392,3.392,0,0,0,2.991,3.751,3.545,3.545,0,0,0,.454.019.63.63,0,0,0,.556-.626v-2.792a1.6,1.6,0,1,1,.595,0v2.78a.627.627,0,0,0,.556.626,3.39,3.39,0,0,0,3.466-3.313,3.765,3.765,0,0,0-.019-.445,5.283,5.283,0,0,0-.771-2.5l1.833-1.381.464-.352v-4a2.93,2.93,0,0,0,.274-1.027.507.507,0,0,0-1.013,0h0" transform="translate(-107.915 -356.554)"/><path class="b" d="M274.166,427.82a1.976,1.976,0,0,1-.721-.866,3.888,3.888,0,0,1,0-2.843,1.976,1.976,0,0,1,.721-.866,1.882,1.882,0,0,1,1.029-.288,1.818,1.818,0,0,1,1.019.288,2.026,2.026,0,0,1,.7.866,3.906,3.906,0,0,1,0,2.843,2,2,0,0,1-.721.866,1.88,1.88,0,0,1-1.027.288,1.814,1.814,0,0,1-1.01-.288m-1.5-6.706a4.784,4.784,0,0,0-1.777,1.8,5.221,5.221,0,0,0-.653,2.639,5.125,5.125,0,0,0,.653,2.6,4.788,4.788,0,0,0,1.759,1.8,5.206,5.206,0,0,0,5.054,0,4.8,4.8,0,0,0,1.759-1.8,5.594,5.594,0,0,0,0-5.246,4.814,4.814,0,0,0-1.759-1.8,5.2,5.2,0,0,0-5.044,0m13.855-.4a3.865,3.865,0,0,0-1.2.691,4.545,4.545,0,0,0-.9,1.056l-.269-1.759h-2.554v9.676h2.9v-4.319a3.511,3.511,0,0,1,.176-1.221,1.834,1.834,0,0,1,.519-.778,2.007,2.007,0,0,1,.807-.413,4.1,4.1,0,0,1,1.055-.125H288v-3.054a4.272,4.272,0,0,0-1.471.25m4.315.162a3.276,3.276,0,0,0-1.384,1.115,2.705,2.705,0,0,0-.48,1.566,2.154,2.154,0,0,0,.317,1.2,2.447,2.447,0,0,0,.846.8,5.413,5.413,0,0,0,1.21.508c.454.135.913.252,1.374.352a10.273,10.273,0,0,1,1.019.241,1.737,1.737,0,0,1,.644.317.709.709,0,0,1,.222.558.755.755,0,0,1-.155.442,1.056,1.056,0,0,1-.452.336,2.066,2.066,0,0,1-.779.125,2.125,2.125,0,0,1-.8-.144,1.294,1.294,0,0,1-.558-.4,1.515,1.515,0,0,1-.278-.586h-2.862a3.167,3.167,0,0,0,.644,1.691,3.8,3.8,0,0,0,1.557,1.182,5.828,5.828,0,0,0,2.347.431,5.569,5.569,0,0,0,2.248-.414,3.354,3.354,0,0,0,1.451-1.143,2.757,2.757,0,0,0,.489-1.671,2.278,2.278,0,0,0-.461-1.583,3.02,3.02,0,0,0-1.335-.836,18.4,18.4,0,0,0-2.027-.538c-.412-.09-.757-.179-1.038-.269a1.9,1.9,0,0,1-.644-.317.523.523,0,0,1-.222-.413.639.639,0,0,1,.327-.558,1.787,1.787,0,0,1,.961-.211,1.9,1.9,0,0,1,.922.2.972.972,0,0,1,.48.586h2.69a3.209,3.209,0,0,0-1.231-2.171,4.558,4.558,0,0,0-2.862-.807,5.227,5.227,0,0,0-2.19.413m11,7.436a.952.952,0,0,1-.442-.327.9.9,0,0,1-.164-.547.931.931,0,0,1,.153-.538.977.977,0,0,1,.47-.352,2.229,2.229,0,0,1,.8-.125h1.863v.019a3.314,3.314,0,0,1-.239.777,2.392,2.392,0,0,1-.413.625,1.8,1.8,0,0,1-.6.422,1.988,1.988,0,0,1-.807.155,1.716,1.716,0,0,1-.625-.106m-1.1-7.408a3.993,3.993,0,0,0-1.566,1.21,3.428,3.428,0,0,0-.683,1.807h2.767a1.191,1.191,0,0,1,.575-.846,2.227,2.227,0,0,1,1.133-.269,2.009,2.009,0,0,1,1,.211,1.214,1.214,0,0,1,.528.633,3.068,3.068,0,0,1,.164,1.077H302.3a5.961,5.961,0,0,0-2.326.394,2.939,2.939,0,0,0-1.355,1.056,2.718,2.718,0,0,0-.433,1.527,2.922,2.922,0,0,0,.375,1.469,2.563,2.563,0,0,0,1.172,1.056,4.6,4.6,0,0,0,2.009.384,4.22,4.22,0,0,0,1.017-.114,3.278,3.278,0,0,0,.846-.336,3,3,0,0,0,.672-.528,3.413,3.413,0,0,0,.5-.663l.352,1.407h2.4v-5.994a3.863,3.863,0,0,0-.566-2.152,3.6,3.6,0,0,0-1.583-1.316,5.885,5.885,0,0,0-2.4-.452,5.422,5.422,0,0,0-2.248.442M312.2,432.566a1.657,1.657,0,0,1-.739-.4.883.883,0,0,1-.269-.653,1.234,1.234,0,0,1,.413-.9,2.089,2.089,0,0,1,.494-.352q.615.1,1.342.158a2.482,2.482,0,0,1,1.344.366.984.984,0,0,1,.327.769.883.883,0,0,1-.239.625,1.5,1.5,0,0,1-.653.394,3.135,3.135,0,0,1-.971.134,3.807,3.807,0,0,1-1.055-.134m0-7.512a1.407,1.407,0,0,1-.048-1.99l.048-.047a1.688,1.688,0,0,1,1.085-.352,1.645,1.645,0,0,1,1.077.352,1.441,1.441,0,0,1,0,2.035l0,0a1.645,1.645,0,0,1-1.077.352,1.678,1.678,0,0,1-1.085-.352m-1.008-4.1a3.579,3.579,0,0,0-1.363,1.288,3.563,3.563,0,0,0,0,3.573,3.274,3.274,0,0,0,.61.746l-1.706,1.877v.442a2.825,2.825,0,0,0,.653.5c.121.072.255.142.4.209a3.461,3.461,0,0,0-.753.848,2.687,2.687,0,0,0,.176,3.056,3.417,3.417,0,0,0,1.6,1.008,7.993,7.993,0,0,0,2.463.336,5.776,5.776,0,0,0,2.5-.47,3.393,3.393,0,0,0,1.46-1.231,3.05,3.05,0,0,0,.48-1.633,2.736,2.736,0,0,0-.394-1.5,2.644,2.644,0,0,0-1.21-.971,6.78,6.78,0,0,0-2.065-.47q-.731-.076-1.191-.144a7.244,7.244,0,0,1-.769-.144,2.508,2.508,0,0,1-.528-.176l-.044-.023.607-.616a4.922,4.922,0,0,0,1.168.13,4.381,4.381,0,0,0,2.111-.48,3.377,3.377,0,0,0,1.344-1.277,3.717,3.717,0,0,0,.128-3.332l1.622-.157v-1.633H314.8a4.766,4.766,0,0,0-1.523-.23,4.271,4.271,0,0,0-2.1.491m10.443,2.991a2.036,2.036,0,0,1,.8-.866,2.194,2.194,0,0,1,1.115-.288,1.964,1.964,0,0,1,1.355.491,1.781,1.781,0,0,1,.586,1.3h-4.071a2.459,2.459,0,0,1,.22-.633m-.727-2.829a4.7,4.7,0,0,0-1.759,1.845,5.514,5.514,0,0,0-.633,2.67,5.1,5.1,0,0,0,.633,2.584,4.529,4.529,0,0,0,1.777,1.749,5.357,5.357,0,0,0,2.639.625,4.905,4.905,0,0,0,2.074-.433,4.722,4.722,0,0,0,1.6-1.172,4.35,4.35,0,0,0,.922-1.663h-2.94a1.889,1.889,0,0,1-.644.663,1.931,1.931,0,0,1-1.056.26,2.252,2.252,0,0,1-1.161-.289,1.877,1.877,0,0,1-.749-.808,2.513,2.513,0,0,1-.248-.922h7.021a4.533,4.533,0,0,0,.047-.491c.005-.16.009-.3.009-.433a4.954,4.954,0,0,0-.625-2.507,4.631,4.631,0,0,0-1.719-1.719,5.478,5.478,0,0,0-5.188.039m30.012-.176a3.4,3.4,0,0,0-1.249,1.3l-.23-1.557H346.91v9.676h2.883v-5.167a2.672,2.672,0,0,1,.269-1.249,1.922,1.922,0,0,1,.739-.8,2.018,2.018,0,0,1,1.056-.278,1.7,1.7,0,0,1,1.432.586,2.646,2.646,0,0,1,.45,1.643v5.265H356.6v-5.536a5.835,5.835,0,0,0-.433-2.373,3.294,3.294,0,0,0-1.258-1.488,3.771,3.771,0,0,0-2.037-.528,3.709,3.709,0,0,0-1.96.491m33.615,6.861a1.976,1.976,0,0,1-.721-.866,3.888,3.888,0,0,1,0-2.843,1.976,1.976,0,0,1,.721-.865,1.872,1.872,0,0,1,1.027-.289,1.833,1.833,0,0,1,1.019.289,2.025,2.025,0,0,1,.7.865,3.888,3.888,0,0,1,0,2.843,2,2,0,0,1-.721.866,1.866,1.866,0,0,1-1.027.289,1.841,1.841,0,0,1-1.008-.289m-1.5-6.706a4.783,4.783,0,0,0-1.777,1.8,5.221,5.221,0,0,0-.653,2.639,5.123,5.123,0,0,0,.653,2.6,4.789,4.789,0,0,0,1.759,1.8,5.212,5.212,0,0,0,5.052,0,4.825,4.825,0,0,0,1.768-1.8,5.594,5.594,0,0,0,0-5.246,4.837,4.837,0,0,0-1.768-1.8,5.2,5.2,0,0,0-5.044,0m13.49-.4a3.874,3.874,0,0,0-1.2.691,4.54,4.54,0,0,0-.9,1.056l-.269-1.759h-2.556v9.676h2.882v-4.3a3.512,3.512,0,0,1,.176-1.221,1.833,1.833,0,0,1,.519-.778,2.028,2.028,0,0,1,.807-.413,4.1,4.1,0,0,1,1.056-.125h.961v-3.054a4.255,4.255,0,0,0-1.469.25m-36.862-2.748-.308,2.729h-1.652v2.4h1.652v3.747a4.187,4.187,0,0,0,.442,2.093,2.518,2.518,0,0,0,1.249,1.1,4.728,4.728,0,0,0,1.845.336H364.7v-2.438h-1.326a1.3,1.3,0,0,1-.894-.241,1.062,1.062,0,0,1-.259-.816v-3.786H364.7v-2.4h-2.479v-2.729Zm-98.714-1.038v13.449h2.882v-5.608h4.766v-2.248h-4.766v-3.267h6.052v-2.326Zm78.3,3.248,1.735,5.033h-3.466Zm-1.633-3.248-4.9,13.449h3.017l1.01-2.941h5l1.013,2.94h3.056l-4.9-13.449Zm40.653,3.374-1.641,7.644L374.73,420.3h-2.389l-1.956,7.658-1.627-7.658h-2.3l2.605,10.075h2.59l1.858-7.038,1.8,7.038H377.9L380.59,420.3Zm21.186,10.075h2.882V416.542h-2.878Zm8.082-2.612a2.261,2.261,0,0,1-.855-.913,2.815,2.815,0,0,1-.308-1.335,2.705,2.705,0,0,1,.308-1.307,2.268,2.268,0,0,1,.855-.9,2.366,2.366,0,0,1,1.231-.327,2.413,2.413,0,0,1,1.258.327,2.232,2.232,0,0,1,.844.9,3.108,3.108,0,0,1,0,2.651,2.232,2.232,0,0,1-.844.9,2.412,2.412,0,0,1-1.258.325,2.382,2.382,0,0,1-1.231-.325m3.545-11.22v5.3a3.149,3.149,0,0,0-1.232-1.029,4.046,4.046,0,0,0-1.749-.352,4.41,4.41,0,0,0-2.373.663,4.691,4.691,0,0,0-1.682,1.807,5.9,5.9,0,0,0-.009,5.227,4.6,4.6,0,0,0,1.652,1.8,4.3,4.3,0,0,0,2.334.653,4.138,4.138,0,0,0,1.365-.2,3.259,3.259,0,0,0,.989-.538,3.839,3.839,0,0,0,.7-.739l.327,1.249h2.563V416.542Z" transform="translate(-93.477 -351.611)"/></g></svg>