<svg xmlns="http://www.w3.org/2000/svg" xmlns:xlink="http://www.w3.org/1999/xlink" width="68.715" height="91" viewBox="0 0 68.715 91"><defs><style>.a{fill:url(#a);}</style><linearGradient id="a" x1="0.5" x2="0.5" y2="1" gradientUnits="objectBoundingBox"><stop offset="0" stop-color="#31f1fd"/><stop offset="0.579" stop-color="#feffd1"/><stop offset="1" stop-color="#edc761"/></linearGradient></defs><path class="a" d="M57.46,97.928a37.222,37.222,0,0,0,6.848,15.146V92.182Zm18.383,15.146A37.221,37.221,0,0,0,82.69,97.928l-6.847-5.747ZM57.1,95.146q.033.55.1,1.131l7.106-5.963,1.43-1.2v25.522a7.348,7.348,0,0,0,4.338,2.323,7.343,7.343,0,0,0,4.336-2.323V89.115l1.432,1.2,7.105,5.963q.071-.58.1-1.131c.447-7.531-5.038-15.029-12.976-15.029S56.652,87.615,57.1,95.146m-9.089-6.791a3.663,3.663,0,0,0-1.061,2.631v11.556a2.926,2.926,0,0,1-.74,1.986,47.74,47.74,0,0,0-9.1,16.02c4.015-3.336,7.648-8.672,11.106-14.911a3.615,3.615,0,0,0,.471-1.658q.3-6.235.594-12.47a2.955,2.955,0,0,1,1.462-2.453c3.773-2.279,7.544-5.869,11.316-11.383-4.541,1.947-9.242,5.686-14.051,10.684m41.4.7a2.955,2.955,0,0,1,1.462,2.453q.3,6.235.594,12.47a3.627,3.627,0,0,0,.471,1.658c3.459,6.239,7.089,11.576,11.106,14.911a47.723,47.723,0,0,0-9.1-16.02,2.925,2.925,0,0,1-.74-1.986V90.987a3.662,3.662,0,0,0-1.06-2.631c-4.81-5-9.511-8.737-14.051-10.684,3.772,5.514,7.542,9.1,11.315,11.383M51.5,72.555a3.689,3.689,0,0,0-2.9,1.869A44.222,44.222,0,0,0,45.483,80.9a2.948,2.948,0,0,1-2.022,1.846A15.556,15.556,0,0,0,35.718,87.2a23.955,23.955,0,0,0,9.63-3.628A3.631,3.631,0,0,0,46.6,82.319a44.266,44.266,0,0,0,3.387-6.755,2.969,2.969,0,0,1,2.525-1.9A55.849,55.849,0,0,0,60.428,72.4a27.373,27.373,0,0,0-3.289-.183,56.463,56.463,0,0,0-5.64.336M79.723,72.4a55.863,55.863,0,0,0,7.914,1.263,2.972,2.972,0,0,1,2.525,1.9,44.262,44.262,0,0,0,3.387,6.755A3.628,3.628,0,0,0,94.8,83.573a23.959,23.959,0,0,0,9.631,3.628,15.555,15.555,0,0,0-7.744-4.457A2.95,2.95,0,0,1,94.667,80.9a44.226,44.226,0,0,0-3.118-6.475,3.688,3.688,0,0,0-2.9-1.869,56.442,56.442,0,0,0-5.639-.336,27.39,27.39,0,0,0-3.29.183m-7.682-1.3-4.057-7.63a8.191,8.191,0,0,0,.122,15.87V71.682l4.057,7.63a8.192,8.192,0,0,0-.122-15.871ZM47.888,48.847A2.957,2.957,0,0,1,49.353,51.3c.105,2.19.1,4.379.012,6.569A3.711,3.711,0,0,0,51.3,61.323c3.353,1.88,6.659,3.576,9.932,5.135q-3.757-3.594-8.29-7.259a2.94,2.94,0,0,1-1.127-2.268c-.065-2.129-.229-4.259-.463-6.388a3.661,3.661,0,0,0-1.409-2.553,18.285,18.285,0,0,0-9.233-4.245,55.074,55.074,0,0,0,7.177,5.1m42.318-.856A3.665,3.665,0,0,0,88.8,50.543c-.235,2.129-.4,4.259-.462,6.388A2.943,2.943,0,0,1,87.209,59.2q-4.54,3.665-8.291,7.259C82.19,64.9,85.5,63.2,88.85,61.323a3.715,3.715,0,0,0,1.936-3.455c-.085-2.19-.093-4.379.012-6.569a2.956,2.956,0,0,1,1.464-2.452,55.077,55.077,0,0,0,7.177-5.1,18.285,18.285,0,0,0-9.233,4.245M82.3,30.768a6.921,6.921,0,0,0,.659,2.468v9.05l-4.992,3.762C75.775,42.691,72.538,40,70.076,40s-5.7,2.693-7.888,6.051l-4.993-3.762v-9.05a6.942,6.942,0,0,0,.659-2.468,1.218,1.218,0,1,0-2.435,0,6.947,6.947,0,0,0,.659,2.468v9.608l1.118.842L61.6,47.007a12.653,12.653,0,0,0-1.854,6c0,5.113,3.445,9.643,8.277,9.06a1.511,1.511,0,0,0,1.335-1.507v-6.68a3.845,3.845,0,1,1,1.431,0v6.68a1.511,1.511,0,0,0,1.336,1.507c4.832.583,8.276-3.947,8.276-9.06a12.642,12.642,0,0,0-1.854-6l4.406-3.321,1.118-.842V33.237a6.947,6.947,0,0,0,.659-2.468,1.218,1.218,0,1,0-2.435,0" transform="translate(-35.718 -29.549)"/></svg>