<svg xmlns="http://www.w3.org/2000/svg" width="16" height="15.759" viewBox="0 0 16 15.759"><defs><style>.a{fill:#ffce48;}</style></defs><path class="a" d="M70.635,75.952a.532.532,0,0,1-.072,0,5.013,5.013,0,0,1-2.876-1.32,2.281,2.281,0,0,1-.579-2.361,2.511,2.511,0,0,1,2.138-1.651,1.98,1.98,0,0,1,1.587.514,5.335,5.335,0,0,1,.992,1.148,6.289,6.289,0,0,1,.858-.992,2.289,2.289,0,0,1,2.162-.588,2.432,2.432,0,0,1,1.773,1.71A2.3,2.3,0,0,1,76,74.627a4.892,4.892,0,0,1-2.775,1.309.559.559,0,0,1-.163-1.106,3.8,3.8,0,0,0,2.157-1,1.168,1.168,0,0,0,.319-1.14,1.311,1.311,0,0,0-.984-.913,1.182,1.182,0,0,0-1.095.316,3.287,3.287,0,0,0-1.11,1.759.559.559,0,0,1-1.1,0,3.138,3.138,0,0,0-1.163-1.89.872.872,0,0,0-.686-.238,1.4,1.4,0,0,0-1.23.894,1.172,1.172,0,0,0,.3,1.212,3.979,3.979,0,0,0,2.237,1.012.559.559,0,0,1-.071,1.113ZM77,86.356H66.68A1.2,1.2,0,0,1,65.547,85.1V78.248H78.134V85.1A1.2,1.2,0,0,1,77,86.356ZM66.665,79.365V85.1a.2.2,0,0,0,.049.145L77,85.239c-.02,0,.017-.048.017-.137L77,79.365Zm11-.06H66.018a2.179,2.179,0,0,1-2.177-2.177v-.117a2.179,2.179,0,0,1,2.177-2.177H77.664a2.179,2.179,0,0,1,2.177,2.177v.117A2.179,2.179,0,0,1,77.664,79.305ZM66.018,75.952a1.06,1.06,0,0,0-1.059,1.059v.117a1.06,1.06,0,0,0,1.059,1.059H77.664a1.06,1.06,0,0,0,1.059-1.059v-.117a1.06,1.06,0,0,0-1.059-1.059Z" transform="translate(-63.841 -70.598)"/></svg>