<svg xmlns="http://www.w3.org/2000/svg" width="17.107" height="17.1" viewBox="0 0 17.107 17.1"><defs><style>.a{fill:#ad31fd;}</style></defs><g transform="translate(0 0)"><path class="a" d="M484.108,47.445l-.008-1.376s.121-.977-1.114-.977h-9.48a.774.774,0,0,0-.829.8v11.93a1.053,1.053,0,0,0,1.041.969h2.423a.61.61,0,0,1,.491.606.49.49,0,0,1-.459.534l-3.035-.005a1.944,1.944,0,0,1-1.615-1.811c-.008-1.521-.008-12.1-.008-12.1a1.869,1.869,0,0,1,2.05-2.061c2.246,0,9.847.016,9.847.016s1.771.013,1.8,1.645.027,1.87.027,1.87-.067.531-.553.531a.61.61,0,0,1-.58-.566Z" transform="translate(-471.511 -43.949)"/><path class="a" d="M1040.534,484.953v2.308a.715.715,0,0,0,.22.521c.244.255,2.248,2.286,2.248,2.286a.629.629,0,0,0,.706-.132c.322-.322-.046-.754-.046-.754l-1.865-1.97s-.137-.089-.137-.453-.005-1.808-.005-1.808-.153-.475-.539-.475A.58.58,0,0,0,1040.534,484.953Z" transform="translate(-1030.216 -476.488)"/><path class="a" d="M634.138,234.949a5.675,5.675,0,1,0,5.675,5.675A5.675,5.675,0,0,0,634.138,234.949Zm0,10.25a4.575,4.575,0,1,1,4.575-4.575,4.574,4.574,0,0,1-4.575,4.575Zm-6.654-8.012h-1.535a.452.452,0,0,1-.451-.451v-.241a.452.452,0,0,1,.451-.451h1.535a.452.452,0,0,1,.451.451v.241A.452.452,0,0,1,627.484,237.187Zm5.715-3.424h-7.247a.452.452,0,0,1-.451-.451v-.242a.452.452,0,0,1,.451-.451H633.2a.452.452,0,0,1,.451.451v.242A.452.452,0,0,1,633.2,233.763Z" transform="translate(-622.706 -229.199)"/></g></svg>