<svg xmlns="http://www.w3.org/2000/svg" width="24" height="23.912" viewBox="0 0 24 23.912"><defs><style>.a{fill:#dcb249;}</style></defs><path class="a" d="M139.171,133.054H134a2.7,2.7,0,0,0-2.7,2.7v5.174a2.7,2.7,0,0,0,2.7,2.7h5.174a2.685,2.685,0,0,0,2.7-2.7v-5.174A2.7,2.7,0,0,0,139.171,133.054Zm1.358,7.871a1.344,1.344,0,0,1-1.358,1.339H134a1.349,1.349,0,0,1-1.355-1.355v-5.178A1.349,1.349,0,0,1,134,134.377h5.174v.016a1.349,1.349,0,0,1,1.355,1.355v5.177Zm-1.358,4.419H134a2.7,2.7,0,0,0-2.7,2.7v5.174a2.7,2.7,0,0,0,2.7,2.7h5.174a2.685,2.685,0,0,0,2.7-2.7V148.04A2.7,2.7,0,0,0,139.171,145.344Zm1.358,7.871a1.344,1.344,0,0,1-1.358,1.339H134a1.349,1.349,0,0,1-1.355-1.355V148.04A1.349,1.349,0,0,1,134,146.686h5.174a1.349,1.349,0,0,1,1.355,1.355v5.174Zm13.98-16.777-3.65-3.65a2.71,2.71,0,0,0-3.82,0l-3.647,3.65a2.7,2.7,0,0,0,0,3.816l3.65,3.65a2.7,2.7,0,0,0,1.91.787,2.629,2.629,0,0,0,1.91-.787l3.65-3.65a2.7,2.7,0,0,0,0-3.816Zm-.953,2.863-3.65,3.65a1.278,1.278,0,0,1-.953.386,1.343,1.343,0,0,1-.953-.4l-3.653-3.653a1.371,1.371,0,0,1-.4-.953,1.281,1.281,0,0,1,.4-.953l3.65-3.65a1.427,1.427,0,0,1,.953-.386,1.343,1.343,0,0,1,.953.4l3.653,3.65a1.371,1.371,0,0,1,.4.953A1.283,1.283,0,0,1,153.556,139.3Zm-2.026,6.043h-5.174a2.7,2.7,0,0,0-2.7,2.7v5.174a2.7,2.7,0,0,0,2.7,2.7h5.174a2.685,2.685,0,0,0,2.7-2.7V148.04A2.7,2.7,0,0,0,151.53,145.344Zm1.355,7.871a1.344,1.344,0,0,1-1.358,1.339h-5.174A1.349,1.349,0,0,1,145,153.2V148.04a1.349,1.349,0,0,1,1.355-1.355h5.174a1.349,1.349,0,0,1,1.355,1.355v5.174Z" transform="translate(-131.3 -132)"/></svg>