<svg xmlns="http://www.w3.org/2000/svg" width="18" height="18" viewBox="0 0 18 18"><defs><style>.a{fill:#e7bb4b;}</style></defs><path class="a" d="M439.665,677.376a1.3,1.3,0,1,0,.917.379A1.314,1.314,0,0,0,439.665,677.376Z" transform="translate(-430.662 -665.469)"/><path class="a" d="M344.324,213.312a2.877,2.877,0,0,0-2.119.8,2.948,2.948,0,0,0-.87,1.952c-.017.679,1.418.538,1.47.2a2.478,2.478,0,0,1,.565-1.19,1.429,1.429,0,0,1,1.023-.39,1.361,1.361,0,0,1,1.009.375,1.259,1.259,0,0,1,.164,1.594,7.43,7.43,0,0,1-.838.841,3.882,3.882,0,0,0-.935,1.155,3.18,3.18,0,0,0-.234,1.309c0,.051,0,.195.006.43h1.455a2.858,2.858,0,0,1,.111-1.033,2.656,2.656,0,0,1,.629-.764,7.11,7.11,0,0,0,1.279-1.45,2.276,2.276,0,0,0,.3-1.13,2.586,2.586,0,0,0-.816-1.891,2.975,2.975,0,0,0-2.2-.813Z" transform="translate(-335.335 -209.562)"/><path class="a" d="M9,0a9,9,0,1,0,9,9A9.011,9.011,0,0,0,9,0ZM8.994,16.856A7.866,7.866,0,1,1,16.863,8.99,7.875,7.875,0,0,1,8.994,16.856Z"/></svg>