<svg xmlns="http://www.w3.org/2000/svg" width="24" height="24" viewBox="0 0 24 24"><defs><style>.a{fill:#e7bb4b;}</style></defs><path class="a" d="M24,12A12,12,0,1,0,12,24,12,12,0,0,0,24,12ZM5.539,16.264a5.053,5.053,0,0,0,.633.04,5.118,5.118,0,0,0,3.292-1.2,2.692,2.692,0,0,1-2.476-1.973,2.477,2.477,0,0,0,1.2-.04A2.817,2.817,0,0,1,6.057,10.3v-.036a2.537,2.537,0,0,0,1.2.367,2.973,2.973,0,0,1-.819-3.787A7.476,7.476,0,0,0,11.9,9.865a2.953,2.953,0,0,1-.069-.64,2.679,2.679,0,0,1,2.651-2.763,2.638,2.638,0,0,1,1.935.913A5.073,5.073,0,0,0,18.1,6.725a2.717,2.717,0,0,1-1.166,1.523,5.05,5.05,0,0,0,1.523-.417,5.451,5.451,0,0,1-1.323,1.423c.005.12.008.24.008.36,0,3.681-2.667,7.925-7.544,7.923A7.139,7.139,0,0,1,5.539,16.264Z"/></svg>