<svg xmlns="http://www.w3.org/2000/svg" width="14" height="14" viewBox="0 0 14 14"><defs><style>.a{fill:#ff4040;}</style></defs><path class="a" d="M11.949,18.956a7,7,0,1,1,7-7A7.008,7.008,0,0,1,11.949,18.956Zm0-13.125a6.125,6.125,0,1,0,6.125,6.125A6.132,6.132,0,0,0,11.949,5.831Zm2.5,8.622a.437.437,0,0,1-.619,0l-1.878-1.878-1.878,1.878a.437.437,0,0,1-.619-.619l1.878-1.878L9.452,10.078a.437.437,0,0,1,.619-.619l1.878,1.878,1.878-1.878a.437.437,0,0,1,.619.619l-1.878,1.878,1.878,1.878A.437.437,0,0,1,14.446,14.453Z" transform="translate(-4.949 -4.956)"/></svg>