<svg xmlns="http://www.w3.org/2000/svg" width="17.58" height="21.879" viewBox="0 0 17.58 21.879"><defs><style>.a{fill:#e7bb4b;}</style></defs><path class="a" d="M201.829,117.436H196.62a1.633,1.633,0,0,1-1.628-1.628v-6.18h-3.419a1.14,1.14,0,0,1-.83-1.921l6.593-6.951a2.6,2.6,0,0,1,3.777,0l6.587,6.951a1.124,1.124,0,0,1,.217,1.232,1.145,1.145,0,0,1-1.047.689h-3.419v6.18a1.618,1.618,0,0,1-1.622,1.628Zm-9.876-9.111h3.2a1.139,1.139,0,0,1,1.139,1.14v6.343a.327.327,0,0,0,.326.326h5.209a.327.327,0,0,0,.326-.326v-6.343a1.139,1.139,0,0,1,1.14-1.14h3.2l-6.327-6.674a1.326,1.326,0,0,0-1.888,0ZM202.48,119.65h-6.511a.651.651,0,0,1,0-1.3h6.511a.651.651,0,1,1,0,1.3Zm1.628,2.17h-9.767a.651.651,0,1,1,0-1.3h9.767a.651.651,0,0,1,0,1.3Z" transform="translate(-190.433 -99.942)"/></svg>